<svg xmlns="http://www.w3.org/2000/svg" xmlns:xlink="http://www.w3.org/1999/xlink" xmlns:sketch="http://www.bohemiancoding.com/sketch/ns" viewBox="0 0 304 228" version="1.1" x="0px" y="0px"><title>icon-friends</title><desc>Created with Sketch.</desc><g stroke="none" stroke-width="1" fill="none" fill-rule="evenodd" sketch:type="MSPage"><g sketch:type="MSLayerGroup" fill="#000000"><path d="M135.647892,121.212372 C128.815174,114.993197 120.94143,109.958924 112.325158,106.471559 C125.254612,96.9742668 133.650435,80.9333315 133.650435,63.6816534 C133.650435,34.8631573 110.24313,11.6 81.3683843,11.6 C52.4936386,11.6 29.0863339,35.1644352 29.0863339,63.9829313 C29.0863339,81.2346094 37.4821563,96.9235845 50.4116101,106.420877 C20.8343914,118.393153 0.0028211769,148.650462 0,182.43582 C0,212.412049 72.0485552,222.44252 120.265488,212.527232 C110.540796,206.734431 104.603774,199.298038 104.603774,190.218054 C104.606035,163.137017 116.627174,138.091781 135.647892,121.212372 Z" sketch:type="MSShapeGroup"></path><path d="M247.103641,105.578811 C261.50001,95.004 270.848383,77.535027 270.848383,58.3260541 C270.848383,26.2379459 244.785395,0 212.634656,0 C180.483916,0 154.420928,25.9024865 154.420928,57.9905946 C154.420928,77.1995676 163.769301,95.0604324 178.165671,105.635243 C145.229618,118.965838 122.037736,152.596432 122.037736,190.218054 C122.037736,240.380216 303.234717,240.380216 303.234717,190.218054 C303.231576,152.599568 280.036553,118.909405 247.103641,105.578811 L247.103641,105.578811 Z" sketch:type="MSShapeGroup" transform="translate(212.636226, 113.919838) scale(-1, 1) translate(-212.636226, -113.919838) "></path></g></g></svg>