<?xml version="1.0" encoding="utf-8"?>
<!-- Generator: Adobe Illustrator 16.0.0, SVG Export Plug-In . SVG Version: 6.00 Build 0)  -->
<!DOCTYPE svg PUBLIC "-//W3C//DTD SVG 1.1//EN" "http://www.w3.org/Graphics/SVG/1.1/DTD/svg11.dtd">
<svg version="1.1" id="Layer_1" xmlns="http://www.w3.org/2000/svg" xmlns:xlink="http://www.w3.org/1999/xlink" x="0px" y="0px"
	 width="455.5px" height="422.5px" viewBox="0 0 455.5 422.5" enable-background="new 0 0 455.5 422.5" xml:space="preserve">
<g>
	<g>
		<polygon fill="#FFFFFF" points="76.491,1.411 97.496,54.234 117.089,1.411 143.893,1.411 104.239,105.96 90.6,105.96 
			72.258,59.563 54.389,105.96 40.911,105.96 0,1.411 26.646,1.411 47.495,56.117 67.716,1.411 		"/>
		<path fill="#FFFFFF" d="M158.615,105.962h-28.217L179.148,0h8.146l47.185,105.962h-27.587l-5.017-11.602h-38.247L158.615,105.962z
			 M192.939,74.455l-9.872-22.415l-10.189,22.415H192.939L192.939,74.455z"/>
		<polygon fill="#FFFFFF" points="252.808,105.96 252.808,1.411 278.984,1.411 278.984,84.017 314.881,84.017 314.881,105.96 		"/>
		<polygon fill="#FFFFFF" points="360.484,71.791 360.484,105.96 334.305,105.96 334.305,1.411 360.484,1.411 360.484,35.74 
			385.564,1.411 417.383,1.411 385.564,40.754 427.104,105.96 395.121,105.96 369.104,61.13 		"/>
		<polygon fill="#FFFFFF" points="24.352,181.159 5.226,181.159 5.226,159.213 69.18,159.213 69.18,181.159 50.531,181.159 
			50.531,263.762 24.352,263.762 		"/>
		<polygon fill="#FFFFFF" points="113.062,263.766 86.885,263.766 86.885,159.211 113.062,159.211 113.062,199.81 143.784,199.81 
			143.784,159.211 169.958,159.211 169.958,263.766 143.784,263.766 143.784,221.755 113.062,221.755 		"/>
		<polygon fill="#FFFFFF" points="248.322,221.755 215.401,221.755 215.401,241.82 249.259,241.82 249.259,263.766 189.229,263.766 
			189.229,159.211 248.162,159.211 248.162,181.159 215.401,181.159 215.401,199.812 248.322,199.812 		"/>
		<polygon fill="#FFFFFF" points="31.403,419.53 5.226,419.53 5.226,314.98 17.137,314.98 69.492,367.802 69.492,314.98 
			95.668,314.98 95.668,419.53 85.639,419.53 31.403,364.354 		"/>
		<rect x="115.088" y="314.98" fill="#FFFFFF" width="26.183" height="104.551"/>
		<path fill="#FFFFFF" d="M236.719,343.663c-7.684-5.486-13.797-7.676-21.313-7.676c-16.459,0-30.255,14.266-30.255,31.188
			c0,16.938,13.638,31.354,29.78,31.354c12.07,0,22.572-7.99,27.902-21.164h-18.654v-21.787h44.36
			c-0.157,24.457-2.821,35.426-11.284,46.086c-10.656,13.482-24.452,19.902-42.479,19.902c-32.606,0-55.646-22.566-55.646-54.392
			c0-31.346,23.513-54.229,55.646-54.229c10.184,0,19.432,1.877,26.646,5.64c2.508,1.414,6.27,3.92,11.128,7.369L236.719,343.663z"
			/>
		<polygon fill="#FFFFFF" points="313.357,419.53 287.178,419.53 287.178,314.98 313.357,314.98 313.357,355.577 344.082,355.577 
			344.082,314.98 370.258,314.98 370.258,419.53 344.082,419.53 344.082,377.521 313.357,377.521 		"/>
		<polygon fill="#FFFFFF" points="409.738,336.927 390.619,336.927 390.619,314.986 454.57,314.986 454.57,336.927 435.916,336.927 
			435.916,419.53 409.738,419.53 		"/>
		<path fill="#FFFFFF" d="M425.48,256.286c-44.041,0-79.727-35.701-79.727-79.736c0-17.742,5.797-34.125,15.604-47.375
			c-33.92,9.17-58.871,40.145-58.871,76.955c0,44.035,35.689,79.731,79.732,79.731c26.289,0,49.602-12.729,64.111-32.353
			C439.693,255.312,432.705,256.286,425.48,256.286"/>
	</g>
</g>
</svg>
