<svg xmlns="http://www.w3.org/2000/svg" width="595.279" height="841.891" viewBox="0 0 595.279 841.891"><g fill="#fff"><path d="M146.846 158.854l21.005 52.823 19.594-52.823h26.804l-39.655 104.55h-13.638l-18.342-46.398-17.87 46.398h-13.477l-40.91-104.55H97l20.85 54.706 20.22-54.706zM228.97 263.406h-28.216l48.75-105.962h8.146l47.184 105.962h-27.586l-5.017-11.602h-38.246l-5.014 11.602zm34.324-31.507l-9.872-22.416-10.19 22.415h20.062zM323.163 263.404v-104.55h26.175v82.606h35.897v21.944zM430.838 229.235v34.17h-26.18v-104.55h26.18v34.328l25.08-34.33h31.82l-31.82 39.345 41.54 65.206h-31.98l-26.02-44.83zM94.707 338.602H75.58v-21.945h63.955v21.945h-18.65v82.603H94.708zM183.417 421.21H157.24V316.654h26.177v40.598h30.722v-40.598h26.173V421.21H214.14V379.2h-30.723zM318.677 379.2h-32.92v20.064h33.857v21.945h-60.03V316.654h58.933v21.947h-32.76v18.653h32.92zM101.758 576.973H75.58v-104.55h11.912l52.355 52.823v-52.822h26.176v104.55h-10.03l-54.235-55.177zM185.443 472.424h26.183v104.55h-26.183zM307.074 501.107c-7.682-5.486-13.797-7.676-21.314-7.676-16.46 0-30.254 14.267-30.254 31.19 0 16.935 13.637 31.35 29.78 31.35 12.07 0 22.573-7.99 27.902-21.163h-18.654V513.02h44.36c-.157 24.457-2.82 35.426-11.284 46.086-10.656 13.484-24.452 19.904-42.478 19.904-32.607 0-55.646-22.568-55.646-54.39 0-31.347 23.513-54.23 55.646-54.23 10.182 0 19.43 1.876 26.646 5.638 2.507 1.414 6.268 3.92 11.127 7.37l-15.83 17.71zM383.71 576.973h-26.177v-104.55h26.178v40.597h30.726v-40.596h26.176v104.55h-26.176v-42.01H383.71zM480.094 494.37h-19.12v-21.94h63.95v21.94h-18.653v82.603h-26.176zM495.834 413.73c-44.04 0-79.726-35.7-79.726-79.737 0-17.742 5.798-34.125 15.603-47.375-33.918 9.17-58.87 40.144-58.87 76.956 0 44.035 35.69 79.732 79.734 79.732 26.29 0 49.6-12.73 64.112-32.352-6.638 1.802-13.625 2.776-20.852 2.776"/><path d="M157.46 660.685c-2.495-1.824-3.983-2.4-6.048-2.4-4.944 0-9.217 4.513-9.217 9.648 0 5.04 4.033 9.217 8.977 9.217 2.448 0 3.937-.576 7.25-2.88l3.503 6.385c-.672.527-1.104.912-1.296 1.008-2.497 1.632-5.953 2.496-9.938 2.496-9.745 0-16.514-6.674-16.514-16.274 0-9.793 7.105-16.85 16.897-16.85 3.984 0 6.913.912 9.985 3.217l-3.6 6.432zM199.03 667.693c0 9.072-8.16 16.753-17.857 16.753-10.225 0-18.434-7.393-18.434-16.657 0-9.362 8.064-16.898 18.145-16.898 10.033 0 18.145 7.488 18.145 16.8zm-27.986-.096c0 5.473 4.32 9.793 9.84 9.793 5.474 0 9.842-4.32 9.842-9.745 0-5.328-4.368-9.696-9.697-9.696-5.618-.002-9.986 4.223-9.986 9.647zM229.99 651.804h2.496l7.2 32.02h-8.208l-2.784-13.826-7.01 13.825h-2.83l-7.298-13.777-2.448 13.777h-8.16l6.384-32.02h2.832l10.08 19.395 9.745-19.394zM242.657 651.804h8.017v32.02h-8.017v-32.02zM263.01 683.822h-8.017v-32.02h3.648l16.034 16.178v-16.177h8.017v32.02h-3.07l-16.61-16.898v16.897zM310.674 660.588c-2.353-1.68-4.225-2.352-6.528-2.352-5.04 0-9.265 4.368-9.265 9.553s4.177 9.6 9.12 9.6c3.697 0 6.914-2.448 8.546-6.48h-5.712v-6.673h13.585c-.05 7.49-.865 10.85-3.457 14.113-3.265 4.13-7.49 6.097-13.01 6.097-9.984 0-17.04-6.912-17.04-16.657 0-9.6 7.2-16.61 17.04-16.61 3.12 0 5.953.577 8.16 1.73.77.432 1.92 1.2 3.41 2.256l-4.85 5.422zM334.193 676.958c.912.096 1.824.19 2.11.24 1.825.19 3.554.336 4.562.336 2.16 0 3.745-1.01 3.745-2.353 0-1.103-.24-1.44-2.545-3.983l-4.896-5.377c-1.585-1.728-2.45-3.984-2.45-6.336 0-2.93 1.49-5.713 3.697-6.913 1.585-.91 4.08-1.39 6.913-1.39 1.584 0 2.832.143 5.425.67v6.338c-1.345-.145-3.36-.24-4.657-.24-2.208 0-2.976.576-2.976 2.112 0 .768.288 1.536.768 2.063l5.232 5.665c2.736 2.928 3.6 4.85 3.6 7.92 0 2.545-1.007 4.897-2.83 6.385-1.922 1.633-5.042 2.353-10.37 2.353-2.112 0-3.024-.096-5.328-.576v-6.912zM391.074 667.693c0 9.072-8.16 16.753-17.857 16.753-10.226 0-18.434-7.393-18.434-16.657 0-9.362 8.064-16.898 18.146-16.898 10.03 0 18.144 7.488 18.144 16.8zm-27.986-.096c0 5.473 4.32 9.793 9.84 9.793 5.473 0 9.842-4.32 9.842-9.745 0-5.328-4.37-9.696-9.697-9.696-5.617-.002-9.985 4.223-9.985 9.647zM429.57 667.693c0 9.072-8.16 16.753-17.857 16.753-10.226 0-18.434-7.393-18.434-16.657 0-9.362 8.063-16.898 18.145-16.898 10.03 0 18.145 7.488 18.145 16.8zm-27.987-.096c0 5.473 4.32 9.793 9.84 9.793 5.473 0 9.842-4.32 9.842-9.745 0-5.328-4.37-9.696-9.697-9.696-5.617-.002-9.985 4.223-9.985 9.647zM440.846 683.822h-8.017v-32.02h3.647l16.033 16.178v-16.177h8.017v32.02h-3.072l-16.61-16.898v16.897z"/></g></svg>