<?xml version="1.0" encoding="utf-8"?>
<!-- Generator: Adobe Illustrator 16.0.0, SVG Export Plug-In . SVG Version: 6.00 Build 0)  -->
<!DOCTYPE svg PUBLIC "-//W3C//DTD SVG 1.1//EN" "http://www.w3.org/Graphics/SVG/1.1/DTD/svg11.dtd">
<svg version="1.1" id="Layer_1" xmlns="http://www.w3.org/2000/svg" xmlns:xlink="http://www.w3.org/1999/xlink" x="0px" y="0px"
	 width="559.25px" height="282.75px" viewBox="0 139.75 559.25 282.75" enable-background="new 0 139.75 559.25 282.75"
	 xml:space="preserve">
<g>
	<path fill="#EC178C" d="M62.66,250.237l16.345-36.003h6.048l-23.762,49.612l-9.361-33.699l-16.058,33.699l-13.969-49.612h5.977
		l9.361,35.931l16.273-35.282L62.66,250.237z"/>
	<path fill="#EC178C" d="M105.137,258.878c-5.328,3.169-7.993,4.032-12.097,4.032c-7.849,0-12.961-5.185-12.961-13.033
		c0-8.856,6.697-15.913,15.122-15.913c5.833,0,10.153,3.24,11.521,8.641c0.432,1.513,0.504,2.593,0.576,6.121H84.903
		c-0.072,0.647-0.072,1.296-0.072,1.656c0,4.68,3.601,8.064,8.569,8.064c3.168,0,6.192-1.08,10.369-3.744L105.137,258.878z
		 M102.545,244.333c-0.432-3.601-3.457-5.977-7.489-5.977c-3.889,0-7.273,2.232-9.001,5.977H102.545z"/>
	<path fill="#EC178C" d="M129.902,234.684h5.544l4.104,19.515l7.632-19.515h5.041l3.6,19.515l7.849-19.515h5.544l-12.169,27.579
		h-4.104l-3.889-20.666l-8.137,20.666h-4.176L129.902,234.684z"/>
	<path fill="#EC178C" d="M188.584,262.263l0.144-1.872c-3.384,1.872-5.761,2.592-8.857,2.592c-5.904,0-9.577-3.384-9.577-8.856
		c0-6.913,4.537-11.089,12.025-11.089c2.88,0,4.969,0.504,7.849,2.016l0.36-2.448l-0.504-1.224
		c-0.648-1.729-3.384-2.952-6.625-2.952c-2.232,0-4.248,0.359-6.769,1.08v-4.537c4.608-0.792,5.617-0.936,7.849-0.936
		c6.265,0,10.729,3.601,10.729,8.641v0.937l-1.8,18.649H188.584z M175.335,253.91c0,3.168,1.944,4.68,6.048,4.68
		c5.256,0,8.209-2.231,8.209-6.265c0-3.096-2.448-4.824-6.697-4.824C177.855,247.501,175.335,249.661,175.335,253.91z"/>
	<path fill="#EC178C" d="M205.43,214.234h5.113l-4.681,48.028h-5.041L205.43,214.234z"/>
	<path fill="#EC178C" d="M218.605,262.263h-5.041l4.608-48.028h5.113l-3.096,31.827l11.953-11.378h6.77l-12.458,11.594
		l11.305,15.985h-6.408l-8.714-12.386l-3.096,2.809L218.605,262.263z"/>
	<path fill="#EC178C" d="M263.893,239.148h-3.24l0.432-4.465h3.24l1.225-12.961l5.328-2.52l-1.512,15.48h3.24l-0.432,4.465h-3.24
		l-2.232,23.114h-5.041L263.893,239.148z"/>
	<path fill="#EC178C" d="M285.637,214.234l-2.377,24.482c2.377-3.24,5.328-4.825,8.857-4.825c2.951,0,5.543,1.297,7.057,3.385
		c1.008,1.44,1.584,3.816,1.584,6.912c0,0.864-0.072,1.729-0.145,2.448l-1.439,15.626h-5.113l1.512-15.266
		c0.072-0.72,0.072-1.44,0.072-2.232c0-1.439-0.072-2.376-0.287-3.24c-0.576-1.944-2.377-3.24-4.609-3.24
		c-4.031,0-7.848,4.104-8.281,8.857l-1.512,15.121h-5.041l4.609-48.028H285.637z"/>
	<path fill="#EC178C" d="M332.004,258.878c-5.328,3.169-7.992,4.032-12.096,4.032c-7.85,0-12.963-5.185-12.963-13.033
		c0-8.856,6.697-15.913,15.123-15.913c5.832,0,10.152,3.24,11.52,8.641c0.434,1.513,0.504,2.593,0.576,6.121h-22.393
		c-0.072,0.647-0.072,1.296-0.072,1.656c0,4.68,3.6,8.064,8.568,8.064c3.168,0,6.191-1.08,10.369-3.744L332.004,258.878z
		 M329.412,244.333c-0.432-3.601-3.457-5.977-7.488-5.977c-3.889,0-7.273,2.232-9.002,5.977H329.412z"/>
	<path fill="#EC178C" d="M360.01,234.684h4.969l-0.361,3.816c2.305-3.096,5.041-4.536,8.57-4.536c5.688,0,9.072,3.601,9.072,9.649
		c0,0.72,0,1.224-0.072,1.512l-1.656,17.138h-5.041l1.584-16.273v-1.368c-0.143-2.448-0.432-3.385-1.295-4.393
		c-1.008-1.152-2.52-1.872-4.105-1.872c-4.248,0-7.416,3.456-7.92,8.713l-1.439,15.193h-4.969L360.01,234.684z"/>
	<path fill="#EC178C" d="M390.752,234.684h5.041l-2.664,27.579h-5.041L390.752,234.684z M391.4,227.34l0.504-5.617h5.256
		l-0.576,5.617H391.4z"/>
	<path fill="#EC178C" d="M429.994,234.684l-2.447,25.851c-0.648,6.48-1.586,9.721-3.385,12.098c-2.664,3.312-6.912,5.04-12.674,5.04
		c-2.447,0-4.68-0.216-7.488-0.792l0.863-4.608c3.098,0.72,5.33,1.008,7.561,1.008c3.961,0,6.914-1.368,8.209-3.744
		c1.008-1.872,1.225-2.952,1.801-9.073l0.287-2.88c-2.807,3.601-6.48,5.4-10.729,5.4c-6.336,0-11.016-5.616-11.016-13.105
		c0-8.496,6.551-15.913,13.969-15.913c3.961,0,7.129,1.729,9.576,5.257l0.432-4.537H429.994z M406.305,249.59
		c0,5.328,2.809,8.929,6.984,8.929c5.545,0,10.369-5.185,10.369-11.233c0-4.969-3.312-8.856-7.561-8.856
		C410.553,238.429,406.305,243.325,406.305,249.59z"/>
	<path fill="#EC178C" d="M444.607,214.234l-2.375,24.482c2.375-3.24,5.328-4.825,8.855-4.825c2.953,0,5.545,1.297,7.057,3.385
		c1.008,1.44,1.584,3.816,1.584,6.912c0,0.864-0.072,1.729-0.143,2.448l-1.441,15.626h-5.111l1.512-15.266
		c0.072-0.72,0.072-1.44,0.072-2.232c0-1.439-0.072-2.376-0.289-3.24c-0.576-1.944-2.375-3.24-4.607-3.24
		c-4.033,0-7.85,4.104-8.281,8.857l-1.512,15.121h-5.041l4.609-48.028H444.607z"/>
	<path fill="#EC178C" d="M468.871,239.148h-3.24l0.432-4.465h3.24l1.225-12.961l5.328-2.52l-1.512,15.48h3.24l-0.434,4.465h-3.24
		l-2.232,23.114h-5.039L468.871,239.148z"/>
	<path fill="#EC178C" d="M38.681,311.797c-1.224-1.152-2.376-1.656-3.672-1.656c-1.944,0-3.528,1.512-3.528,3.312
		c0,1.439,1.152,2.664,4.176,4.607c3.96,2.447,5.616,4.824,5.616,7.92c0,5.113-4.248,8.93-10.009,8.93
		c-3.024,0-5.256-0.936-8.137-3.312l3.024-3.816c1.872,1.873,3.672,2.736,5.544,2.736c2.304,0,4.249-1.801,4.249-3.889
		c0-1.512-1.152-2.879-4.033-4.752c-4.608-2.953-6.048-4.824-6.048-7.705c0-4.68,4.104-8.209,9.505-8.209
		c2.448,0,4.249,0.648,6.265,2.16L38.681,311.797z"/>
	<path fill="#EC178C" d="M74.682,319.141c0,4.248-2.016,8.93-5.184,11.953c-2.736,2.52-6.265,3.889-10.225,3.889
		c-7.705,0-12.889-5.258-12.889-12.961c0-8.857,6.913-16.059,15.481-16.059C69.426,305.963,74.682,311.363,74.682,319.141z
		 M51.712,321.732c0,5.186,3.312,8.857,7.921,8.857c5.112,0,9.721-5.4,9.721-11.305c0-5.041-3.312-8.93-7.633-8.93
		C56.321,310.355,51.712,315.613,51.712,321.732z"/>
	<path fill="#EC178C" d="M117.665,306.684h5.4l-20.09,41.332h-5.4l8.137-16.705l-8.353-24.627h5.328l6.193,18.146L117.665,306.684z"
		/>
	<path fill="#EC178C" d="M153.233,319.141c0,4.248-2.016,8.93-5.184,11.953c-2.736,2.52-6.265,3.889-10.225,3.889
		c-7.705,0-12.889-5.258-12.889-12.961c0-8.857,6.913-16.059,15.481-16.059C147.977,305.963,153.233,311.363,153.233,319.141z
		 M130.263,321.732c0,5.186,3.312,8.857,7.921,8.857c5.112,0,9.721-5.4,9.721-11.305c0-5.041-3.312-8.93-7.633-8.93
		C134.872,310.355,130.263,315.613,130.263,321.732z"/>
	<path fill="#EC178C" d="M180.591,334.262h-5.112l1.008-3.527c-2.521,3.096-4.825,4.32-8.425,4.32c-3.096,0-5.977-1.225-7.417-3.24
		c-1.008-1.369-1.512-3.17-1.512-5.545c0-0.432,0-1.008,0.072-1.439l1.728-18.146h5.113l-1.656,16.633l-0.072,1.584
		c0,3.889,1.584,5.689,4.969,5.689c3.96,0,6.913-3.672,7.488-9.361l1.368-14.545h5.113L180.591,334.262z"/>
	<path fill="#EC178C" d="M228.328,329.582c-2.881,3.672-6.05,5.4-10.154,5.4c-6.985,0-12.169-5.545-12.169-12.961
		c0-8.641,6.913-16.059,14.978-16.059c3.672,0,6.984,1.584,9.217,4.393l2.305-24.121h5.041l-4.609,48.027h-5.041L228.328,329.582z
		 M211.333,321.732c0,5.041,3.312,8.785,7.633,8.785c5.4,0,10.008-5.184,10.008-11.16c0-5.113-3.312-8.93-7.632-8.93
		C215.942,310.428,211.333,315.613,211.333,321.732z"/>
	<path fill="#EC178C" d="M269.15,319.141c0,4.248-2.016,8.93-5.184,11.953c-2.736,2.52-6.264,3.889-10.225,3.889
		c-7.705,0-12.889-5.258-12.889-12.961c0-8.857,6.912-16.059,15.48-16.059C263.895,305.963,269.15,311.363,269.15,319.141z
		 M246.182,321.732c0,5.186,3.312,8.857,7.92,8.857c5.113,0,9.721-5.4,9.721-11.305c0-5.041-3.312-8.93-7.633-8.93
		C250.789,310.355,246.182,315.613,246.182,321.732z"/>
	<path fill="#EC178C" d="M276.924,306.684h4.969l-0.359,3.816c2.303-3.096,5.039-4.537,8.568-4.537c5.688,0,9.072,3.602,9.072,9.65
		c0,0.719,0,1.223-0.072,1.512l-1.656,17.137h-5.039l1.584-16.273v-1.367c-0.145-2.449-0.434-3.385-1.297-4.393
		c-1.008-1.152-2.52-1.873-4.104-1.873c-4.25,0-7.418,3.457-7.922,8.713l-1.439,15.193h-4.969L276.924,306.684z"/>
	<path fill="#EC178C" d="M313.715,302.436h-4.463l4.607-17.209h6.408L313.715,302.436z"/>
	<path fill="#EC178C" d="M326.963,311.148h-3.24l0.432-4.465h3.24l1.225-12.961l5.328-2.52l-1.512,15.48h3.24l-0.432,4.465h-3.24
		l-2.232,23.113h-5.041L326.963,311.148z"/>
	<path fill="#EC178C" d="M366.059,286.234l-2.375,24.482c2.375-3.24,5.328-4.826,8.855-4.826c2.953,0,5.545,1.297,7.057,3.385
		c1.008,1.441,1.584,3.816,1.584,6.912c0,0.865-0.072,1.729-0.143,2.449l-1.441,15.625h-5.111l1.512-15.266
		c0.072-0.719,0.072-1.439,0.072-2.232c0-1.439-0.072-2.375-0.289-3.24c-0.576-1.943-2.375-3.24-4.607-3.24
		c-4.033,0-7.85,4.105-8.281,8.857l-1.512,15.121h-5.041l4.609-48.027H366.059z"/>
	<path fill="#EC178C" d="M405.154,334.262l0.145-1.871c-3.385,1.871-5.762,2.592-8.857,2.592c-5.904,0-9.576-3.385-9.576-8.857
		c0-6.912,4.535-11.088,12.023-11.088c2.881,0,4.969,0.504,7.85,2.016l0.359-2.449l-0.504-1.223
		c-0.648-1.729-3.385-2.953-6.625-2.953c-2.232,0-4.248,0.359-6.768,1.08v-4.537c4.607-0.791,5.615-0.936,7.848-0.936
		c6.266,0,10.73,3.602,10.73,8.641v0.938l-1.801,18.648H405.154z M391.904,325.91c0,3.168,1.945,4.68,6.049,4.68
		c5.256,0,8.209-2.232,8.209-6.266c0-3.096-2.449-4.824-6.697-4.824C394.426,319.5,391.904,321.66,391.904,325.91z"/>
	<path fill="#EC178C" d="M436.402,306.684h5.545l-13.322,27.578h-3.744l-8.279-27.578h5.543l5.33,20.018L436.402,306.684z"/>
	<path fill="#EC178C" d="M468.66,330.877c-5.328,3.17-7.992,4.033-12.098,4.033c-7.848,0-12.961-5.186-12.961-13.033
		c0-8.857,6.697-15.914,15.121-15.914c5.832,0,10.152,3.24,11.521,8.641c0.432,1.514,0.504,2.594,0.576,6.121h-22.395
		c-0.072,0.648-0.072,1.297-0.072,1.656c0,4.68,3.602,8.064,8.57,8.064c3.168,0,6.191-1.08,10.367-3.744L468.66,330.877z
		 M466.068,316.332c-0.434-3.6-3.457-5.977-7.49-5.977c-3.887,0-7.271,2.232-9,5.977H466.068z"/>
	<path fill="#EC178C" d="M497.385,311.148h-3.24l0.432-4.465h3.24l1.225-12.961l5.328-2.52l-1.512,15.48h3.24l-0.432,4.465h-3.24
		l-2.232,23.113h-5.041L497.385,311.148z"/>
	<path fill="#EC178C" d="M537.346,319.141c0,4.248-2.016,8.93-5.184,11.953c-2.736,2.52-6.266,3.889-10.225,3.889
		c-7.705,0-12.889-5.258-12.889-12.961c0-8.857,6.912-16.059,15.48-16.059C532.09,305.963,537.346,311.363,537.346,319.141z
		 M514.377,321.732c0,5.186,3.312,8.857,7.92,8.857c5.113,0,9.721-5.4,9.721-11.305c0-5.041-3.312-8.93-7.633-8.93
		C518.984,310.355,514.377,315.613,514.377,321.732z"/>
</g>
</svg>
