<?xml version="1.0" encoding="utf-8"?>
<!-- Generator: Adobe Illustrator 16.0.0, SVG Export Plug-In . SVG Version: 6.00 Build 0)  -->
<!DOCTYPE svg PUBLIC "-//W3C//DTD SVG 1.1//EN" "http://www.w3.org/Graphics/SVG/1.1/DTD/svg11.dtd">
<svg version="1.1" id="Layer_1" xmlns="http://www.w3.org/2000/svg" xmlns:xlink="http://www.w3.org/1999/xlink" x="0px" y="0px"
	 width="368px" height="40px" viewBox="0 0 368 40" enable-background="new 0 0 368 40" xml:space="preserve">
<g>
	<path fill="#FFFFFF" d="M360.38,33.106c-11.011-0.771-19.306-10.319-18.536-21.329c0.31-4.437,2.041-8.432,4.726-11.572
		c-8.644,1.699-15.422,9.007-16.065,18.213c-0.77,11.008,7.528,20.557,18.543,21.328c6.568,0.458,12.622-2.315,16.596-6.967
		C363.95,33.111,362.186,33.231,360.38,33.106"/>
	<g>
		<path fill="#FFFFFF" d="M279.533,33.284h-6.602V6.921h6.602v10.09h7.746V6.921h6.602v26.363h-6.602V22.837h-7.746V33.284z"/>
		<path stroke="#000000" stroke-miterlimit="10" d="M290.182,22.89"/>
		<path fill="#FFFFFF" d="M22.452,6.847l5.296,13.319l5.673-13.319h6.758L29.447,33.21h-3.438l-4.624-11.699L16.878,33.21h-3.399
			L2.357,6.847h6.719l6.063,13.793l5.099-13.793H22.452z"/>
		<path fill="#FFFFFF" d="M42.428,33.21h-7.114L47.459,6.492h2.056l11.75,26.718h-6.956l-1.265-2.558h-9.351L42.428,33.21z
			 M50.791,25.632l-2.343-6.019l-2.423,6.019H50.791z"/>
		<path fill="#FFFFFF" d="M66.006,33.21V6.847h6.601v20.831h10.077v5.532H66.006z"/>
		<path fill="#FFFFFF" d="M94.477,24.594v8.616h-6.601V6.847h6.601v8.656l6.69-8.656h8.023l-8.244,9.921l10.621,16.442h-8.062
			l-6.75-11.345L94.477,24.594z"/>
		<path fill="#FFFFFF" d="M130.158,12.454h-5.261V6.921h17.005v5.533h-5.143v20.831h-6.601V12.454z"/>
		<path fill="#FFFFFF" d="M152.632,33.284h-6.6V6.921h6.6v10.09h7.748V6.921h6.6v26.363h-6.6V22.837h-7.748V33.284z"/>
		<path fill="#FFFFFF" d="M186.711,22.69h-8.657v5.06h8.893v5.534h-15.494V6.921h15.217v5.533h-8.617v4.704h8.657V22.69z"/>
		<path fill="#FFFFFF" d="M209.889,33.312h-6.602V6.948h3.004l13.201,13.32V6.948h6.602v26.364h-2.529l-13.676-13.913V33.312z"/>
		<path fill="#FFFFFF" d="M230.601,6.948h6.601v26.364h-6.601V6.948z"/>
		<path stroke="#000000" stroke-miterlimit="10" d="M163.281,22.89"/>
		<path fill="#FFFFFF" d="M258.59,17.084v5.494h3.901c-1.344,3.319-3.992,5.335-7.035,5.335c-4.071,0-7.51-3.636-7.51-7.903
			c0-4.27,3.479-7.866,7.628-7.866c1.896,0,3.438,0.553,5.376,1.937l4.556-4.011c0,0-0.286-0.248-0.564-0.455
			c-1.226-0.87-2.174-1.502-2.806-1.858c-1.818-0.948-4.15-1.423-6.721-1.423c-8.102,0-14.03,5.771-14.03,13.677
			c0,8.021,5.811,13.715,14.03,13.715c4.547,0,8.024-1.621,10.712-5.021c2.135-2.688,2.807-5.454,2.847-11.62H258.59z"/>
		<path fill="#FFFFFF" d="M303.432,12.454h-5.262V6.921h17.005v5.533h-5.143v20.831h-6.601V12.454z"/>
	</g>
</g>
</svg>
